name Walk10.mot
datacolumns 19
datarows 17
range 1.12000000 1.20000000
endheader

                time	   L_ground_force_vx	   L_ground_force_vy	   L_ground_force_vz	   L_ground_force_px	   L_ground_force_py	   L_ground_force_pz	   R_ground_force_vx	   R_ground_force_vy	   R_ground_force_vz	   R_ground_force_px	   R_ground_force_py	   R_ground_force_pz	   L_ground_torque_x	   L_ground_torque_y	   L_ground_torque_z	   R_ground_torque_x	   R_ground_torque_y	   R_ground_torque_z	
          1.12000000	          0.00000000	         -0.00000000	         -0.00000000	         -0.00000000	          0.00000000	         -0.00000000	          0.20244421	         -7.35152214	         -0.68199243	         -0.00003982	          0.00000000	         -0.00006288	          0.00000000	          0.00000000	          0.00000000	          0.00000000	         -0.00461940	          0.00000000	
          1.12500000	          0.00000000	         -0.00000000	          0.00000000	         -0.00000000	          0.00000000	         -0.00000000	        -20.30564891	         59.12225750	         -3.93368438	         -0.17396718	          0.00000000	          0.24513356	          0.00000000	          0.00000000	          0.00000000	          0.00000000	         -0.23477868	          0.00000000	
          1.13000000	         -0.00000000	         -0.00000000	          0.00000000	          0.00000000	          0.00000000	          0.00000000	        -41.64539834	        195.49631484	         -1.11616891	         -0.25884186	          0.00000000	          0.36428239	          0.00000000	          0.00000000	          0.00000000	          0.00000000	         -0.35013174	          0.00000000	
          1.13500000	         -0.00000000	          0.00000000	         -0.00000000	          0.00000000	          0.00000000	          0.00000000	        -46.45364260	        328.85976842	         12.86875964	         -0.26575857	          0.00000000	          0.37533583	          0.00000000	         -0.00000000	          0.00000000	          0.00000000	         -0.28033553	          0.00000000	
          1.14000000	         -0.00000000	          0.00000000	         -0.00000000	          0.00000000	          0.00000000	          0.00000000	        -39.79920143	        388.95122444	         29.26902218	         -0.25701943	          0.00000000	          0.36495825	          0.00000000	         -0.00000000	          0.00000000	          0.00000000	         -0.20014923	          0.00000000	
          1.14500000	          0.00000000	          0.00000000	         -0.00000000	         -0.00000000	          0.00000000	         -0.00000000	        -36.61032836	        418.22307588	         37.39663310	         -0.25216715	          0.00000000	          0.36036923	          0.00000000	          0.00000000	          0.00000000	          0.00000000	         -0.20898184	          0.00000000	
          1.15000000	          0.00000000	         -0.00000000	          0.00000000	         -0.00000000	          0.00000000	         -0.00000000	        -43.11318054	        458.12226953	         36.14901749	         -0.24997746	          0.00000000	          0.36037777	          0.00000000	          0.00000000	          0.00000000	          0.00000000	         -0.30389984	          0.00000000	
          1.15500000	          0.00000000	         -0.00000000	          0.00000000	         -0.00000000	          0.00000000	         -0.00000000	        -60.15055453	        487.46971710	         29.87283982	         -0.24764341	          0.00000000	          0.36146463	          0.00000000	          0.00000000	          0.00000000	          0.00000000	         -0.49950787	          0.00000000	
          1.16000000	         -0.00000000	         -0.00000000	          0.00000000	          0.00000000	          0.00000000	          0.00000000	        -82.64687738	        491.07355123	         22.41690881	         -0.24385023	          0.00000000	          0.36300145	          0.00000000	         -0.00000000	          0.00000000	          0.00000000	         -0.72377772	          0.00000000	
          1.16500000	         -0.00000000	          0.00000000	         -0.00000000	          0.00000000	          0.00000000	          0.00000000	       -101.52845637	        490.90421535	         13.65441137	         -0.23801052	          0.00000000	          0.36483661	          0.00000000	         -0.00000000	          0.00000000	          0.00000000	         -0.78764232	          0.00000000	
          1.17000000	         -0.00000000	          0.00000000	         -0.00000000	          0.00000000	          0.00000000	          0.00000000	       -113.17468358	        511.28514041	          2.14479943	         -0.23077193	          0.00000000	          0.36610168	          0.00000000	         -0.00000000	          0.00000000	          0.00000000	         -0.56528916	          0.00000000	
          1.17500000	          0.00000000	         -0.00000000	         -0.00000000	         -0.00000000	          0.00000000	         -0.00000000	       -122.46997597	        550.00905115	        -11.15646924	         -0.22425309	          0.00000000	          0.36724162	          0.00000000	          0.00000000	          0.00000000	          0.00000000	         -0.19484218	          0.00000000	
          1.18000000	          0.00000000	         -0.00000000	          0.00000000	         -0.00000000	          0.00000000	         -0.00000000	       -134.31940221	        587.76976368	        -22.46604355	         -0.21953260	          0.00000000	          0.36837195	          0.00000000	          0.00000000	          0.00000000	          0.00000000	          0.12926493	          0.00000000	
          1.18500000	          0.00000000	         -0.00000000	          0.00000000	          0.00000000	          0.00000000	          0.00000000	       -147.29544084	        615.55309039	        -29.56522197	         -0.21582160	          0.00000000	          0.36927097	          0.00000000	          0.00000000	          0.00000000	          0.00000000	          0.26723794	          0.00000000	
          1.19000000	         -0.00000000	          0.00000000	          0.00000000	          0.00000000	          0.00000000	          0.00000000	       -158.32333802	        640.65409603	        -33.43540741	         -0.21252635	          0.00000000	          0.36986796	          0.00000000	         -0.00000000	          0.00000000	          0.00000000	          0.12414278	          0.00000000	
          1.19500000	         -0.00000000	          0.00000000	         -0.00000000	          0.00000000	          0.00000000	          0.00000000	       -166.53105702	        670.48472760	        -34.76210257	         -0.20988890	          0.00000000	          0.36993681	          0.00000000	         -0.00000000	          0.00000000	          0.00000000	         -0.21350165	          0.00000000	
          1.20000000	          0.00000000	          0.00000000	         -0.00000000	         -0.00000000	          0.00000000	         -0.00000000	       -171.18401985	        703.86906871	        -33.34565175	         -0.20830996	          0.00000000	          0.36968452	          0.00000000	         -0.00000000	          0.00000000	          0.00000000	         -0.55404211	          0.00000000	
